# xmcd CD database file
#
# Track frame offsets:
#	150
#	26800
#	60420
#	77227
#	94140
#	113317
#	132297
#
# Disc length: 1954 seconds
#
# Revision: 0
# Processed by: cddbd v1.5.1PL2 Copyright (c) Steve Scherf et al.
# Submitted via: CDex 1.51
#
DISCID=4f07a007
DTITLE=Tommy Flanagan - Lonely Town
DYEAR=1959
DGENRE=Jazz
TTITLE0=America
TTITLE1=Lonely Town
TTITLE2=Tonight
TTITLE3=It's Love
TTITLE4=Lucky To Be Me
TTITLE5=Glitter And Be Gay
TTITLE6=Make Our Garden Grow
EXTD=YEAR: 1959
EXTT0=
EXTT1=
EXTT2=
EXTT3=
EXTT4=
EXTT5=
EXTT6=
PLAYORDER=
